<mxfile host="app.diagrams.net" agent="Mozilla/5.0 (Windows NT 10.0; Win64; x64) AppleWebKit/537.36 (KHTML, like Gecko) Chrome/134.0.0.0 YaBrowser/25.4.0.0 Safari/537.36" version="27.0.9">
  <diagram name="Page-1" id="e56a1550-8fbb-45ad-956c-1786394a9013">
    <mxGraphModel dx="1489" dy="954" grid="1" gridSize="10" guides="1" tooltips="1" connect="1" arrows="1" fold="1" page="1" pageScale="1" pageWidth="1100" pageHeight="850" background="none" math="0" shadow="0">
      <root>
        <mxCell id="0" />
        <mxCell id="1" parent="0" />
        <mxCell id="2e49270ec7c68f3f-80" value="users" style="swimlane;html=1;fontStyle=0;childLayout=stackLayout;horizontal=1;startSize=32;fillColor=#e0e0e0;horizontalStack=0;resizeParent=1;resizeLast=0;collapsible=1;marginBottom=0;swimlaneFillColor=#ffffff;align=center;rounded=0;shadow=0;comic=0;labelBackgroundColor=none;strokeWidth=1;fontFamily=Verdana;fontSize=14" parent="1" vertex="1">
          <mxGeometry x="10" y="380" width="160" height="32" as="geometry" />
        </mxCell>
        <mxCell id="cyBd8Ml3z5QBhJ2P979c-1" value="artist" style="swimlane;html=1;fontStyle=0;childLayout=stackLayout;horizontal=1;startSize=32;fillColor=#e0e0e0;horizontalStack=0;resizeParent=1;resizeLast=0;collapsible=1;marginBottom=0;swimlaneFillColor=#ffffff;align=center;rounded=0;shadow=0;comic=0;labelBackgroundColor=none;strokeWidth=1;fontFamily=Verdana;fontSize=14" parent="1" vertex="1">
          <mxGeometry x="270" y="500" width="160" height="32" as="geometry" />
        </mxCell>
        <mxCell id="cyBd8Ml3z5QBhJ2P979c-4" value="playlists" style="swimlane;html=1;fontStyle=0;childLayout=stackLayout;horizontal=1;startSize=32;fillColor=#e0e0e0;horizontalStack=0;resizeParent=1;resizeLast=0;collapsible=1;marginBottom=0;swimlaneFillColor=#ffffff;align=center;rounded=0;shadow=0;comic=0;labelBackgroundColor=none;strokeWidth=1;fontFamily=Verdana;fontSize=14" parent="1" vertex="1">
          <mxGeometry x="270" y="270" width="160" height="32" as="geometry" />
        </mxCell>
        <mxCell id="cyBd8Ml3z5QBhJ2P979c-5" value="" style="edgeStyle=orthogonalEdgeStyle;html=1;endArrow=ERzeroToMany;startArrow=ERone;labelBackgroundColor=none;fontFamily=Verdana;fontSize=14;entryX=0;entryY=0.5;exitX=1;exitY=0.5;exitDx=0;exitDy=0;entryDx=0;entryDy=0;endFill=0;startFill=0;" parent="1" source="2e49270ec7c68f3f-80" target="cyBd8Ml3z5QBhJ2P979c-1" edge="1">
          <mxGeometry width="100" height="100" relative="1" as="geometry">
            <mxPoint x="380" y="512" as="sourcePoint" />
            <mxPoint x="380" y="350" as="targetPoint" />
            <Array as="points">
              <mxPoint x="230" y="396" />
              <mxPoint x="230" y="510" />
              <mxPoint x="270" y="510" />
            </Array>
          </mxGeometry>
        </mxCell>
        <mxCell id="cyBd8Ml3z5QBhJ2P979c-6" value="" style="edgeStyle=orthogonalEdgeStyle;html=1;endArrow=ERzeroToMany;startArrow=ERone;labelBackgroundColor=none;fontFamily=Verdana;fontSize=14;entryX=0;entryY=0.5;entryDx=0;entryDy=0;endFill=0;startFill=0;exitX=1;exitY=0.5;exitDx=0;exitDy=0;" parent="1" source="2e49270ec7c68f3f-80" target="cyBd8Ml3z5QBhJ2P979c-4" edge="1">
          <mxGeometry width="100" height="100" relative="1" as="geometry">
            <mxPoint x="190" y="400" as="sourcePoint" />
            <mxPoint x="300" y="316" as="targetPoint" />
            <Array as="points">
              <mxPoint x="230" y="396" />
              <mxPoint x="230" y="286" />
            </Array>
          </mxGeometry>
        </mxCell>
        <mxCell id="cyBd8Ml3z5QBhJ2P979c-8" value="albums" style="swimlane;html=1;fontStyle=0;childLayout=stackLayout;horizontal=1;startSize=32;fillColor=#e0e0e0;horizontalStack=0;resizeParent=1;resizeLast=0;collapsible=1;marginBottom=0;swimlaneFillColor=#ffffff;align=center;rounded=0;shadow=0;comic=0;labelBackgroundColor=none;strokeWidth=1;fontFamily=Verdana;fontSize=14" parent="1" vertex="1">
          <mxGeometry x="480" y="500" width="160" height="32" as="geometry" />
        </mxCell>
        <mxCell id="cyBd8Ml3z5QBhJ2P979c-9" value="" style="edgeStyle=orthogonalEdgeStyle;html=1;endArrow=ERzeroToMany;startArrow=ERone;labelBackgroundColor=none;fontFamily=Verdana;fontSize=14;entryX=0;entryY=0.5;exitX=1;exitY=0.5;exitDx=0;exitDy=0;entryDx=0;entryDy=0;endFill=0;startFill=0;" parent="1" source="cyBd8Ml3z5QBhJ2P979c-1" target="cyBd8Ml3z5QBhJ2P979c-8" edge="1">
          <mxGeometry width="100" height="100" relative="1" as="geometry">
            <mxPoint x="440" y="644" as="sourcePoint" />
            <mxPoint x="620" y="570" as="targetPoint" />
            <Array as="points">
              <mxPoint x="470" y="516" />
            </Array>
          </mxGeometry>
        </mxCell>
        <mxCell id="cyBd8Ml3z5QBhJ2P979c-10" value="genres" style="swimlane;html=1;fontStyle=0;childLayout=stackLayout;horizontal=1;startSize=32;fillColor=#e0e0e0;horizontalStack=0;resizeParent=1;resizeLast=0;collapsible=1;marginBottom=0;swimlaneFillColor=#ffffff;align=center;rounded=0;shadow=0;comic=0;labelBackgroundColor=none;strokeWidth=1;fontFamily=Verdana;fontSize=14" parent="1" vertex="1">
          <mxGeometry x="270" y="150" width="160" height="32" as="geometry" />
        </mxCell>
        <mxCell id="cyBd8Ml3z5QBhJ2P979c-11" value="tracks" style="swimlane;html=1;fontStyle=0;childLayout=stackLayout;horizontal=1;startSize=32;fillColor=#e0e0e0;horizontalStack=0;resizeParent=1;resizeLast=0;collapsible=1;marginBottom=0;swimlaneFillColor=#ffffff;align=center;rounded=0;shadow=0;comic=0;labelBackgroundColor=none;strokeWidth=1;fontFamily=Verdana;fontSize=14" parent="1" vertex="1">
          <mxGeometry x="680" y="500" width="160" height="32" as="geometry" />
        </mxCell>
        <mxCell id="cyBd8Ml3z5QBhJ2P979c-14" value="playlists_tracks" style="swimlane;html=1;fontStyle=0;childLayout=stackLayout;horizontal=1;startSize=32;fillColor=#e0e0e0;horizontalStack=0;resizeParent=1;resizeLast=0;collapsible=1;marginBottom=0;swimlaneFillColor=#ffffff;align=center;rounded=0;shadow=0;comic=0;labelBackgroundColor=none;strokeWidth=1;fontFamily=Verdana;fontSize=14" parent="1" vertex="1">
          <mxGeometry x="650" y="340" width="160" height="32" as="geometry" />
        </mxCell>
        <mxCell id="cyBd8Ml3z5QBhJ2P979c-15" value="" style="edgeStyle=orthogonalEdgeStyle;html=1;endArrow=ERzeroToMany;startArrow=ERone;labelBackgroundColor=none;fontFamily=Verdana;fontSize=14;entryX=0;entryY=0.5;exitX=1;exitY=0.5;exitDx=0;exitDy=0;entryDx=0;entryDy=0;endFill=0;startFill=0;rounded=0;" parent="1" source="cyBd8Ml3z5QBhJ2P979c-4" target="cyBd8Ml3z5QBhJ2P979c-14" edge="1">
          <mxGeometry width="100" height="100" relative="1" as="geometry">
            <mxPoint x="460" y="280" as="sourcePoint" />
            <mxPoint x="550" y="280" as="targetPoint" />
            <Array as="points">
              <mxPoint x="430" y="276" />
              <mxPoint x="580" y="276" />
              <mxPoint x="580" y="356" />
            </Array>
          </mxGeometry>
        </mxCell>
        <mxCell id="cyBd8Ml3z5QBhJ2P979c-16" value="" style="edgeStyle=orthogonalEdgeStyle;html=1;endArrow=ERzeroToMany;startArrow=ERone;labelBackgroundColor=none;fontFamily=Verdana;fontSize=14;entryX=0;entryY=0.5;entryDx=0;entryDy=0;endFill=0;startFill=0;rounded=0;exitX=1;exitY=0.5;exitDx=0;exitDy=0;" parent="1" source="cyBd8Ml3z5QBhJ2P979c-11" target="cyBd8Ml3z5QBhJ2P979c-14" edge="1">
          <mxGeometry width="100" height="100" relative="1" as="geometry">
            <mxPoint x="730" y="630" as="sourcePoint" />
            <mxPoint x="740" y="490" as="targetPoint" />
            <Array as="points">
              <mxPoint x="880" y="516" />
              <mxPoint x="880" y="420" />
              <mxPoint x="580" y="420" />
              <mxPoint x="580" y="356" />
            </Array>
          </mxGeometry>
        </mxCell>
        <mxCell id="cyBd8Ml3z5QBhJ2P979c-17" value="" style="edgeStyle=orthogonalEdgeStyle;html=1;endArrow=ERzeroToMany;startArrow=ERone;labelBackgroundColor=none;fontFamily=Verdana;fontSize=14;entryX=0;entryY=0.5;entryDx=0;entryDy=0;endFill=0;startFill=0;rounded=0;exitX=1;exitY=0.5;exitDx=0;exitDy=0;" parent="1" source="cyBd8Ml3z5QBhJ2P979c-8" target="cyBd8Ml3z5QBhJ2P979c-11" edge="1">
          <mxGeometry width="100" height="100" relative="1" as="geometry">
            <mxPoint x="660" y="516" as="sourcePoint" />
            <mxPoint x="560" y="610" as="targetPoint" />
            <Array as="points" />
          </mxGeometry>
        </mxCell>
        <mxCell id="cyBd8Ml3z5QBhJ2P979c-18" value="tracks_genres" style="swimlane;html=1;fontStyle=0;childLayout=stackLayout;horizontal=1;startSize=32;fillColor=#e0e0e0;horizontalStack=0;resizeParent=1;resizeLast=0;collapsible=1;marginBottom=0;swimlaneFillColor=#ffffff;align=center;rounded=0;shadow=0;comic=0;labelBackgroundColor=none;strokeWidth=1;fontFamily=Verdana;fontSize=14" parent="1" vertex="1">
          <mxGeometry x="930" y="250" width="160" height="32" as="geometry" />
        </mxCell>
        <mxCell id="cyBd8Ml3z5QBhJ2P979c-19" value="" style="edgeStyle=orthogonalEdgeStyle;html=1;endArrow=ERzeroToMany;startArrow=ERone;labelBackgroundColor=none;fontFamily=Verdana;fontSize=14;exitX=1;exitY=0.5;exitDx=0;exitDy=0;endFill=0;startFill=0;rounded=0;entryX=0;entryY=0.5;entryDx=0;entryDy=0;" parent="1" source="cyBd8Ml3z5QBhJ2P979c-11" target="cyBd8Ml3z5QBhJ2P979c-18" edge="1">
          <mxGeometry width="100" height="100" relative="1" as="geometry">
            <mxPoint x="830" y="530" as="sourcePoint" />
            <mxPoint x="820" y="252" as="targetPoint" />
            <Array as="points">
              <mxPoint x="880" y="516" />
              <mxPoint x="880" y="266" />
            </Array>
          </mxGeometry>
        </mxCell>
        <mxCell id="cyBd8Ml3z5QBhJ2P979c-20" value="" style="edgeStyle=orthogonalEdgeStyle;html=1;endArrow=ERzeroToMany;startArrow=ERone;labelBackgroundColor=none;fontFamily=Verdana;fontSize=14;endFill=0;startFill=0;rounded=0;entryX=0;entryY=0.5;entryDx=0;entryDy=0;exitX=1;exitY=0.5;exitDx=0;exitDy=0;" parent="1" source="cyBd8Ml3z5QBhJ2P979c-10" target="cyBd8Ml3z5QBhJ2P979c-18" edge="1">
          <mxGeometry width="100" height="100" relative="1" as="geometry">
            <mxPoint x="480" y="210" as="sourcePoint" />
            <mxPoint x="930" y="259.9999999999998" as="targetPoint" />
            <Array as="points">
              <mxPoint x="880" y="166" />
              <mxPoint x="880" y="266" />
            </Array>
          </mxGeometry>
        </mxCell>
        <mxCell id="50rPVhvfb47bmhGsmC7R-1" value="listen_tracks" style="swimlane;html=1;fontStyle=0;childLayout=stackLayout;horizontal=1;startSize=32;fillColor=#e0e0e0;horizontalStack=0;resizeParent=1;resizeLast=0;collapsible=1;marginBottom=0;swimlaneFillColor=#ffffff;align=center;rounded=0;shadow=0;comic=0;labelBackgroundColor=none;strokeWidth=1;fontFamily=Verdana;fontSize=14" vertex="1" parent="1">
          <mxGeometry x="440" y="650" width="160" height="32" as="geometry" />
        </mxCell>
        <mxCell id="50rPVhvfb47bmhGsmC7R-2" value="" style="edgeStyle=orthogonalEdgeStyle;html=1;endArrow=ERzeroToMany;startArrow=ERone;labelBackgroundColor=none;fontFamily=Verdana;fontSize=14;entryX=0;entryY=0.5;exitX=1;exitY=0.5;exitDx=0;exitDy=0;entryDx=0;entryDy=0;endFill=0;startFill=0;" edge="1" parent="1" source="2e49270ec7c68f3f-80" target="50rPVhvfb47bmhGsmC7R-1">
          <mxGeometry width="100" height="100" relative="1" as="geometry">
            <mxPoint x="170" y="510" as="sourcePoint" />
            <mxPoint x="270" y="630" as="targetPoint" />
            <Array as="points">
              <mxPoint x="230" y="396" />
              <mxPoint x="230" y="666" />
            </Array>
          </mxGeometry>
        </mxCell>
        <mxCell id="50rPVhvfb47bmhGsmC7R-3" value="" style="edgeStyle=orthogonalEdgeStyle;html=1;endArrow=ERzeroToMany;startArrow=ERone;labelBackgroundColor=none;fontFamily=Verdana;fontSize=14;exitX=1;exitY=0.5;exitDx=0;exitDy=0;endFill=0;startFill=0;entryX=0;entryY=0.5;entryDx=0;entryDy=0;" edge="1" parent="1" source="cyBd8Ml3z5QBhJ2P979c-11" target="50rPVhvfb47bmhGsmC7R-1">
          <mxGeometry width="100" height="100" relative="1" as="geometry">
            <mxPoint x="690" y="630" as="sourcePoint" />
            <mxPoint x="430" y="760" as="targetPoint" />
            <Array as="points">
              <mxPoint x="880" y="516" />
              <mxPoint x="880" y="580" />
              <mxPoint x="330" y="580" />
              <mxPoint x="330" y="666" />
            </Array>
          </mxGeometry>
        </mxCell>
      </root>
    </mxGraphModel>
  </diagram>
</mxfile>
